<svg width="125" height="20" viewBox="0 0 125 20" fill="none" xmlns="http://www.w3.org/2000/svg">
<path d="M118.828 0H110.116C107.158 0 104.751 2.40692 104.751 5.36525V14.0766C104.751 17.0351 107.158 19.4419 110.116 19.4419H118.828C121.786 19.4419 124.193 17.035 124.193 14.0766V5.36525C124.193 2.40692 121.786 0 118.828 0ZM122.468 14.0766C122.468 16.0839 120.835 17.7169 118.828 17.7169H110.116C108.109 17.717 106.476 16.0839 106.476 14.0766V5.36525C106.476 3.35807 108.109 1.72498 110.116 1.72498H118.828C120.835 1.72498 122.468 3.35807 122.468 5.36525V14.0766H122.468Z" fill="#A3A3A3"/>
<path d="M114.472 4.71155C111.71 4.71155 109.463 6.95885 109.463 9.72123C109.463 12.4835 111.71 14.7307 114.472 14.7307C117.235 14.7307 119.482 12.4835 119.482 9.72123C119.482 6.95885 117.235 4.71155 114.472 4.71155ZM114.472 13.0056C112.661 13.0056 111.188 11.5322 111.188 9.72111C111.188 7.90989 112.661 6.43641 114.472 6.43641C116.283 6.43641 117.757 7.90989 117.757 9.72111C117.757 11.5322 116.283 13.0056 114.472 13.0056Z" fill="#A3A3A3"/>
<path d="M119.692 3.24878C119.36 3.24878 119.033 3.38333 118.798 3.61907C118.563 3.85367 118.427 4.18027 118.427 4.51376C118.427 4.84622 118.563 5.1727 118.798 5.40845C119.033 5.64305 119.36 5.77875 119.692 5.77875C120.025 5.77875 120.351 5.64305 120.587 5.40845C120.822 5.1727 120.957 4.84611 120.957 4.51376C120.957 4.18027 120.822 3.85367 120.587 3.61907C120.352 3.38333 120.025 3.24878 119.692 3.24878Z" fill="#A3A3A3"/>
<path d="M72.7513 3.93723C72.7513 2.39392 71.358 1 69.8143 1H58.0662C56.5224 1 55.1291 2.39392 55.1291 3.93723V15.685C55.1291 17.2283 56.5224 18.6222 58.0663 18.6222H63.9402V11.9649H61.7864V9.02789H63.9402V7.88362C63.9402 5.91013 65.422 4.13283 67.2444 4.13283H69.6185V7.06987H67.2444C66.9845 7.06987 66.6814 7.3853 66.6814 7.85777V9.02789H69.6185V11.9649H66.6814V18.6222H69.8143C71.358 18.6222 72.7513 17.2283 72.7513 15.685V3.93723Z" fill="#2F80ED"/>
<path d="M26.0218 16.361C26.0494 16.407 26.079 16.4644 26.1108 16.5336C26.1426 16.6027 26.1745 16.7248 26.2069 16.8995C26.2385 17.0746 26.2365 17.2312 26.2 17.3693C26.1633 17.5072 26.0496 17.634 25.8582 17.7491C25.6672 17.864 25.3979 17.9219 25.0519 17.9219L21.5532 17.977C21.3342 18.023 21.0792 18 20.7881 17.908C20.4964 17.8159 20.2595 17.7146 20.077 17.604L19.8038 17.4383C19.5306 17.2447 19.2117 16.9503 18.8471 16.5543C18.4827 16.1585 18.1707 15.8019 17.911 15.4841C17.6512 15.1666 17.3734 14.8994 17.0772 14.683C16.7808 14.4665 16.5235 14.3952 16.3048 14.4688C16.2775 14.4782 16.2412 14.494 16.1958 14.5171C16.1502 14.5401 16.0723 14.607 15.9631 14.7175C15.8541 14.8277 15.7562 14.9636 15.6694 15.1247C15.5825 15.2859 15.5049 15.5253 15.4368 15.8429C15.3686 16.1605 15.3388 16.5172 15.3481 16.9131C15.3481 17.051 15.3322 17.1778 15.3002 17.2929C15.2686 17.4077 15.2344 17.4931 15.1978 17.5481L15.1435 17.6173C14.9793 17.7921 14.7378 17.8934 14.419 17.9212H12.8473C12.2003 17.9578 11.5352 17.882 10.8519 17.6931C10.1684 17.5044 9.56942 17.2604 9.05453 16.9614C8.53973 16.6619 8.07056 16.3581 7.64677 16.0496C7.22307 15.7412 6.90196 15.4765 6.68329 15.2555L6.34154 14.924C6.25044 14.832 6.12512 14.6941 5.96557 14.5097C5.80621 14.3257 5.4805 13.9067 4.98845 13.2529C4.49639 12.5994 4.01348 11.9041 3.53971 11.1674C3.06603 10.4313 2.50787 9.4597 1.86554 8.25355C1.22322 7.0474 0.628726 5.79524 0.0820493 4.49689C0.0273338 4.34969 0 4.22537 0 4.12408C0 4.02273 0.0137866 3.94911 0.0411204 3.90301L0.0958359 3.82024C0.232553 3.64527 0.4922 3.55767 0.874874 3.55767L4.6197 3.53019C4.72913 3.54853 4.83378 3.57832 4.93406 3.61988C5.03421 3.66148 5.10721 3.70052 5.15269 3.73728L5.22109 3.77883C5.36686 3.88013 5.47624 4.02733 5.54905 4.22068C5.7312 4.68105 5.94072 5.15763 6.17778 5.65032C6.41469 6.14281 6.60138 6.51809 6.73805 6.77583L6.95667 7.17646C7.22091 7.72889 7.47606 8.20764 7.72197 8.61272C7.96807 9.01781 8.18904 9.33315 8.38497 9.55882C8.5809 9.78443 8.76994 9.96158 8.95209 10.0905C9.13428 10.2195 9.28909 10.284 9.41676 10.284C9.54424 10.284 9.66741 10.2607 9.78584 10.2148C9.80394 10.2057 9.82672 10.1825 9.85406 10.1458C9.88144 10.109 9.93606 10.0077 10.0182 9.842C10.1001 9.67632 10.1616 9.45994 10.2027 9.19292C10.2438 8.9259 10.2869 8.55308 10.3325 8.07418C10.378 7.59547 10.378 7.02002 10.3325 6.34777C10.3144 5.97964 10.2664 4.01439 10.2027 3.7106C10.2027 3.7106 10.2027 3.23361 12.5929 3.04707C13.3402 3.05636 13.9909 2.93665 14.4739 3.04708C14.6559 3.09323 14.8088 3.15534 14.9317 3.23361C15.0545 3.31198 15.148 3.42237 15.2119 3.56507C15.2754 3.70792 15.3236 3.85526 15.355 4.00706C15.3868 4.15905 15.4029 4.36846 15.4029 4.63548C15.4029 4.90251 15.3986 5.15579 15.3893 5.39519C15.38 5.63435 15.3688 5.95899 15.355 6.36871C15.3415 6.77844 15.3348 7.15822 15.3348 7.50816C15.3348 7.60945 15.3305 7.80266 15.321 8.08821C15.3118 8.37361 15.3098 8.59483 15.3141 8.75122C15.3187 8.9078 15.3347 9.09404 15.3619 9.31056C15.3893 9.52694 15.4415 9.70655 15.5192 9.84925C15.5965 9.99195 15.699 10.1047 15.8265 10.1876C15.8997 10.206 15.977 10.2244 16.0591 10.2429C16.141 10.2614 16.2593 10.2108 16.4143 10.0909C16.5695 9.97111 16.7423 9.81249 16.9338 9.6145C17.1249 9.4167 17.3619 9.10812 17.6442 8.6893C17.927 8.27033 18.2366 7.77552 18.5738 7.20456C19.1206 6.24705 19.6078 5.21123 20.0364 4.09713C20.0727 4.00508 20.1183 3.92429 20.1727 3.85546C20.2274 3.78638 20.2775 3.73805 20.3231 3.71058L20.3775 3.66902L20.446 3.63444L20.6237 3.59288C20.7423 3.56521 20.8334 3.56309 20.8972 3.58592L24.8332 3.55844C25.1887 3.51244 25.4801 3.52385 25.7082 3.59288C25.9357 3.66206 26.0769 3.73791 26.1317 3.82082L26.2131 3.95854C26.4228 4.54788 25.7393 5.90118 24.1629 8.01898C23.9443 8.31368 23.6483 8.70483 23.2746 9.19287C22.5641 10.1138 22.1538 10.7165 22.0446 11.0019C21.8899 11.3797 21.9533 11.7525 22.2362 12.1208C22.3908 12.3141 22.7601 12.6918 23.3431 13.2535H23.3569L23.3707 13.2673L23.3842 13.2809L23.4114 13.3085C24.6961 14.5147 25.5664 15.5321 26.0218 16.361Z" fill="#2F80ED"/>
</svg>
