<svg width="89" height="24" viewBox="0 0 89 24" fill="none" xmlns="http://www.w3.org/2000/svg">
<path fill-rule="evenodd" clip-rule="evenodd" d="M20.3297 9.42866L21.8739 9.69062C22.5311 9.80092 23.0091 10.3662 22.9999 11.0326V12.9674C22.9999 13.6338 22.5219 14.1991 21.8647 14.3094L20.3205 14.5667C20.1643 15.0815 19.9529 15.5824 19.7001 16.065L20.6101 17.3426C20.9961 17.8849 20.9318 18.6248 20.463 19.0936L19.0935 20.4631C18.8361 20.7205 18.496 20.863 18.133 20.863C17.848 20.863 17.5723 20.7756 17.3425 20.6102L16.0695 19.7002C15.5915 19.953 15.0906 20.1598 14.5713 20.3207L14.3093 21.8648C14.199 22.522 13.6337 23 12.9673 23H11.0279C10.3615 23 9.79627 22.522 9.68597 21.8648L9.42861 20.3207C8.92767 20.1644 8.44052 19.9668 7.97635 19.7232L6.68495 20.6424C6.45516 20.8078 6.18401 20.8951 5.89907 20.8951C5.53601 20.8951 5.19592 20.7527 4.93856 20.4953L3.56903 19.1258C3.09566 18.657 3.03592 17.9171 3.42196 17.3748L4.32732 16.1155C4.06996 15.6376 3.85856 15.1366 3.69771 14.6219L2.13515 14.3553C1.47796 14.245 1 13.6798 1 13.0134V11.0785C1 10.4122 1.47796 9.84688 2.13515 9.73658L3.66094 9.47921C3.8172 8.95989 4.01941 8.45895 4.27218 7.97639L3.35303 6.68498C2.96698 6.14268 3.03132 5.40276 3.50009 4.93399L4.87422 3.56445C5.12699 3.30708 5.47167 3.16461 5.83473 3.16461C6.11967 3.16461 6.39541 3.25193 6.6252 3.41738L7.88903 4.32735C8.36699 4.06998 8.86793 3.85858 9.38265 3.69772L9.64921 2.13516C9.7595 1.47796 10.3248 1 10.9912 1H12.926C13.5924 1 14.1576 1.47796 14.2679 2.13516L14.5253 3.66096C15.063 3.82181 15.5823 4.03781 16.0787 4.29977L17.3563 3.38981C17.5861 3.22436 17.8572 3.13704 18.1422 3.13704C18.5052 3.13704 18.8453 3.27951 19.1027 3.53687L20.4722 4.90641C20.9456 5.37518 21.0053 6.1151 20.6193 6.65741L19.7093 7.93044C19.9621 8.4084 20.1689 8.90934 20.3297 9.42866ZM21.6671 13.0869C21.7268 13.0777 21.7682 13.0272 21.7682 12.9674H21.7728V11.0326C21.7728 10.9728 21.7314 10.9223 21.6717 10.9131L19.7415 10.5868C19.5025 10.55 19.3049 10.3708 19.2451 10.1318C19.0705 9.45624 18.8039 8.80823 18.4455 8.20618C18.3214 7.99478 18.3306 7.72822 18.4731 7.5306L19.6082 5.93587C19.6404 5.88531 19.6358 5.82097 19.5944 5.77961L18.2249 4.41007C18.1927 4.3779 18.1559 4.3733 18.1376 4.3733C18.1146 4.3733 18.0916 4.38249 18.0686 4.39628L16.4831 5.53604C16.2809 5.6785 16.0189 5.6877 15.8075 5.56361C15.1917 5.20054 14.5299 4.92939 13.8359 4.75475C13.597 4.69501 13.4177 4.49739 13.3764 4.25381L13.0547 2.33737C13.0455 2.27763 12.9949 2.23626 12.9352 2.23626H11.0004C10.9406 2.23626 10.8901 2.27763 10.8809 2.33737L10.55 4.28139C10.5086 4.52037 10.3294 4.71339 10.095 4.77773C9.41942 4.95237 8.77142 5.22812 8.17397 5.58659C7.96257 5.71068 7.69601 5.70148 7.4938 5.55901L5.90826 4.42845C5.88988 4.41466 5.8669 4.40547 5.83933 4.40547C5.81635 4.40547 5.78418 4.41007 5.75201 4.44224L4.38247 5.81178C4.34111 5.85314 4.33652 5.92208 4.36869 5.96804L5.51303 7.57656C5.6555 7.77418 5.66928 8.03614 5.5452 8.24755C5.19133 8.84959 4.92937 9.50219 4.75933 10.1778C4.69958 10.4168 4.50196 10.596 4.25839 10.6374L2.34196 10.9591C2.28221 10.9682 2.24085 11.0188 2.24085 11.0785V13.0134C2.24085 13.0731 2.28221 13.1237 2.34196 13.1329L4.28596 13.4638C4.52494 13.5051 4.71796 13.6844 4.7823 13.9187C4.95694 14.5943 5.23269 15.2423 5.59116 15.8398C5.71524 16.0512 5.70605 16.3177 5.56358 16.5199L4.43303 18.1055C4.40086 18.156 4.40545 18.2204 4.44681 18.2618L5.81635 19.6313C5.84852 19.6635 5.88528 19.6681 5.90367 19.6681C5.92665 19.6681 5.94963 19.6589 5.9726 19.6451L7.58112 18.5007C7.68682 18.4226 7.8155 18.3858 7.93959 18.3858C8.04529 18.3858 8.15559 18.4134 8.2521 18.4686C8.84495 18.8086 9.47916 19.0706 10.1364 19.2407C10.3707 19.3004 10.55 19.4934 10.5913 19.737L10.913 21.6672C10.9222 21.727 10.9728 21.7683 11.0325 21.7683H12.9673C13.0271 21.7683 13.0776 21.727 13.0868 21.6672L13.4131 19.737C13.4499 19.498 13.6291 19.3004 13.8681 19.2407C14.5437 19.066 15.1917 18.7995 15.7937 18.441C16.0051 18.3169 16.2717 18.3261 16.4693 18.4686L18.064 19.6037C18.0824 19.6175 18.1054 19.6267 18.133 19.6267C18.1559 19.6267 18.1881 19.6221 18.2203 19.5899L19.5898 18.2204C19.6312 18.179 19.6358 18.1101 19.6036 18.0641L18.4685 16.4648C18.326 16.2626 18.3168 16.0006 18.4409 15.7892C18.7994 15.1872 19.0659 14.5392 19.2405 13.8636C19.3003 13.6292 19.4933 13.45 19.7369 13.4086L21.6671 13.0869ZM7.25464 11.9967C7.25464 9.37715 9.38247 7.24931 12.0021 7.24931C14.6216 7.24931 16.7495 9.37715 16.7495 11.9967C16.7495 14.6163 14.6216 16.7442 12.0021 16.7442C9.38247 16.7442 7.25464 14.6163 7.25464 11.9967ZM8.49549 11.9967C8.49549 13.9316 10.0672 15.5033 12.0021 15.5033C13.9369 15.5033 15.5086 13.9316 15.5086 11.9967C15.5086 10.0619 13.9369 8.49017 12.0021 8.49017C10.0672 8.49017 8.49549 10.0619 8.49549 11.9967Z" fill="#A3A3A3" stroke="#A3A3A3" stroke-width="0.7"/>
<path fill-rule="evenodd" clip-rule="evenodd" d="M38.7944 2C38.3494 2 38 2.36516 38 2.80146V22.0246C38 22.3509 38.1969 22.6488 38.5037 22.7705C38.8117 22.8927 39.1605 22.8091 39.3814 22.5647L45.3752 15.933L51.369 22.5647C51.5899 22.8091 51.9387 22.8927 52.2467 22.7705C52.5535 22.6488 52.7504 22.3509 52.7504 22.0246V2.80146C52.7504 2.36516 52.401 2 51.956 2H38.7944ZM39.7513 19.5322V3.76822H50.9991V19.5322L46.022 14.0255C45.8723 13.8598 45.6596 13.764 45.435 13.764H45.3154C45.0908 13.764 44.8781 13.8598 44.7284 14.0255L39.7513 19.5322Z" fill="#A3A3A3"/>
<path fill-rule="evenodd" clip-rule="evenodd" d="M70 8C70 6.34315 71.3431 5 73 5H86C87.6569 5 89 6.34315 89 8V21C89 22.6569 87.6569 24 86 24H73C71.3431 24 70 22.6569 70 21V8ZM73 7C72.4477 7 72 7.44772 72 8V21C72 21.5523 72.4477 22 73 22H86C86.5523 22 87 21.5523 87 21V8C87 7.44772 86.5523 7 86 7H73Z" fill="#A3A3A3"/>
<path fill-rule="evenodd" clip-rule="evenodd" d="M74 1C74.5523 1 75 1.44772 75 2V6C75 6.55228 74.5523 7 74 7C73.4477 7 73 6.55228 73 6V2C73 1.44772 73.4477 1 74 1Z" fill="#A3A3A3"/>
<path fill-rule="evenodd" clip-rule="evenodd" d="M85 1C85.5523 1 86 1.44772 86 2V6C86 6.55228 85.5523 7 85 7C84.4477 7 84 6.55228 84 6V2C84 1.44772 84.4477 1 85 1Z" fill="#A3A3A3"/>
<path d="M74 10.6086C74 10.0564 74.4477 9.60864 75 9.60864H76C76.5523 9.60864 77 10.0564 77 10.6086V11.4782C77 12.0305 76.5523 12.4782 76 12.4782H75C74.4477 12.4782 74 12.0305 74 11.4782V10.6086Z" fill="#A3A3A3"/>
<path d="M78 10.6086C78 10.0564 78.4477 9.60864 79 9.60864H80C80.5523 9.60864 81 10.0564 81 10.6086V11.4782C81 12.0305 80.5523 12.4782 80 12.4782H79C78.4477 12.4782 78 12.0305 78 11.4782V10.6086Z" fill="#A3A3A3"/>
<path d="M82 10.6086C82 10.0564 82.4477 9.60864 83 9.60864H84C84.5523 9.60864 85 10.0564 85 10.6086V11.4782C85 12.0305 84.5523 12.4782 84 12.4782H83C82.4477 12.4782 82 12.0305 82 11.4782V10.6086Z" fill="#A3A3A3"/>
<path d="M74 15.3914C74 14.8391 74.4477 14.3914 75 14.3914H76C76.5523 14.3914 77 14.8391 77 15.3914V16.2609C77 16.8132 76.5523 17.2609 76 17.2609H75C74.4477 17.2609 74 16.8132 74 16.2609V15.3914Z" fill="#A3A3A3"/>
<path d="M78 15.3914C78 14.8391 78.4477 14.3914 79 14.3914H80C80.5523 14.3914 81 14.8391 81 15.3914V16.2609C81 16.8132 80.5523 17.2609 80 17.2609H79C78.4477 17.2609 78 16.8132 78 16.2609V15.3914Z" fill="#A3A3A3"/>
<path d="M82 15.3914C82 14.8391 82.4477 14.3914 83 14.3914H84C84.5523 14.3914 85 14.8391 85 15.3914V16.2609C85 16.8132 84.5523 17.2609 84 17.2609H83C82.4477 17.2609 82 16.8132 82 16.2609V15.3914Z" fill="#A3A3A3"/>
</svg>
