<svg width="12" height="16" viewBox="0 0 12 16" fill="none" xmlns="http://www.w3.org/2000/svg">
<path fill-rule="evenodd" clip-rule="evenodd" d="M6 1.60428C3.56989 1.60428 1.60428 3.5673 1.60428 5.98342C1.60428 6.54507 1.79987 7.32021 2.16641 8.21397C2.52664 9.09235 3.02564 10.0223 3.56992 10.8728C4.1155 11.7253 4.69143 12.4744 5.19609 12.9996C5.44965 13.2635 5.66789 13.4527 5.84012 13.57C5.91566 13.6214 5.96826 13.6493 6 13.6643C6.03173 13.6493 6.08434 13.6214 6.15988 13.57C6.33211 13.4527 6.55035 13.2635 6.80391 12.9996C7.30857 12.4744 7.8845 11.7253 8.43008 10.8728C8.97436 10.0223 9.47336 9.09235 9.83359 8.21397C10.2001 7.32021 10.3957 6.54507 10.3957 5.98342C10.3957 3.5673 8.43011 1.60428 6 1.60428ZM0 5.98342C0 2.67645 2.68871 0 6 0C9.31129 0 12 2.67645 12 5.98342C12 6.85254 11.7148 7.85495 11.3179 8.8227C10.9147 9.80584 10.3676 10.8214 9.78136 11.7375C9.19641 12.6516 8.55734 13.4903 7.9607 14.1112C7.66361 14.4204 7.35963 14.6939 7.06284 14.896C6.79061 15.0814 6.41594 15.2829 6 15.2829C5.58407 15.2829 5.20939 15.0814 4.93716 14.896C4.64037 14.6939 4.33639 14.4204 4.0393 14.1112C3.44266 13.4903 2.80359 12.6516 2.21864 11.7375C1.63238 10.8214 1.08531 9.80584 0.682108 8.8227C0.285215 7.85495 0 6.85254 0 5.98342Z" fill="#2F80ED"/>
<path d="M7.64146 6.13685C7.64146 6.96784 6.96781 7.64149 6.13682 7.64149C5.30582 7.64149 4.63217 6.96784 4.63217 6.13685C4.63217 5.30585 5.30582 4.6322 6.13682 4.6322C6.96781 4.6322 7.64146 5.30585 7.64146 6.13685Z" fill="#2F80ED"/>
</svg>
